<svg height="512" viewBox="0 0 512 512" width="512" xmlns="http://www.w3.org/2000/svg"><g><g><path d="m360 157.55v66.45c0 33.56-21.85 63.41-48 82.42-18.6 13.53-39.37 21.58-56 21.58s-37.4-8.05-56-21.58a137.35 137.35 0 0 1 -11-8.88 131.244 131.244 0 0 1 -16.34-17.54 106.722 106.722 0 0 1 -14.27-24.54 82.891 82.891 0 0 1 -6.39-31.46v-65c88 0 152.07-38.74 152.07-38.74 12.97 19.17 32.3 32.95 55.93 37.29z" fill="#ffdaaa"/><g><g><path d="m312 306.42v37.58l-55.54 63.48-.61.35-55.85-63.83v-37.58c18.6 13.53 39.37 21.58 56 21.58s37.4-8.05 56-21.58z" fill="#ffdaaa"/><g fill="#e0e0e2"><path d="m221.86 184a16 16 0 1 1 -27.72 0z"/><path d="m280 280a15.979 15.979 0 0 1 -16 16h-16a16 16 0 1 1 0-32h16a16 16 0 0 1 16 16z"/><path d="m320 192a16 16 0 1 1 -29.86-8h27.72a15.915 15.915 0 0 1 2.14 8z"/></g></g><g fill="#e0e0e2"><path d="m255.78 407.87-.23.13.23.11-37.93 18.97-9.85 4.92-46.58-77.85 2.38-.62 36.2-9.53 55.85 63.83z"/><path d="m350.22 354.06-45.67 77.94-9.61-4.71-39.16-19.18.22-.11.46-.52 55.54-63.48 35.89 9.45z"/><path d="m256 408-.22.11-.23-.11.23-.13.07-.04z"/></g><path d="m464 445.67v50.33h-416v-50.33a79.992 79.992 0 0 1 59.64-77.36l53.78-14.16 46.58 77.85 9.85-4.92 22.15 36.92h32l22.94-36.71 9.61 4.71 45.67-77.94 54.14 14.25a79.992 79.992 0 0 1 59.64 77.36z" fill="#c6c5ca"/><path d="m128 144h24v96h-24z" fill="#57565c"/><path d="m128 144v96h-4a19.994 19.994 0 0 1 -20-20v-56a19.994 19.994 0 0 1 20-20z" fill="#e0e0e2"/><path d="m360 144h24v96h-24z" fill="#57565c"/><path d="m408 164v56a19.994 19.994 0 0 1 -20 20h-4v-96h4a19.994 19.994 0 0 1 20 20z" fill="#e0e0e2"/><path d="m172.66 280h-36.66v-32l22.39 7.46a106.722 106.722 0 0 0 14.27 24.54z" fill="#e0e0e2"/><path d="m280 280a15.979 15.979 0 0 1 -16 16h-16a16 16 0 1 1 0-32h16a16 16 0 0 1 16 16z" fill="#57565c"/></g><g fill="#e0e0e2"><path d="m159.55 351.02 4.25 2.51-2.38.62z"/><path d="m256 408-.22.11-.23-.11.23-.13z"/><path d="m255.85 407.83.61-.35-.46.52-.22.11-.23-.11.23-.13z"/><path d="m352 351.02-1.78 3.04-2.33-.61z"/></g><path d="m281 496h-49l8-32h32z" fill="#2d2d30"/><path d="m217.85 427.08-1.85-3.08" fill="none"/><path d="m294.94 427.29-22.94 36.71h-32l-22.15-36.92 37.93-18.97z" fill="#57565c"/><path d="m297 424-2.06 3.29" fill="none"/><path d="m360 120v37.55c-23.63-4.34-42.96-18.12-55.93-37.29 0 0-64.07 38.74-152.07 38.74v-39a104 104 0 0 1 208 0z" fill="#ff9811"/></g><g><circle cx="208" cy="192" r="16"/><circle cx="304" cy="192" r="16"/><path d="m406.4 360.57-86.4-22.74v-27.48c20.29-15.67 37.55-37.47 44.6-62.35h23.4a28.031 28.031 0 0 0 28-28v-56a28.031 28.031 0 0 0 -28-28h-20v-16a112 112 0 0 0 -224 0v16h-20a28.031 28.031 0 0 0 -28 28v56a28.031 28.031 0 0 0 28 28h4v32a8 8 0 0 0 8 8h32.91a142.581 142.581 0 0 0 23.09 22.35v27.48l-86.39 22.74a88.046 88.046 0 0 0 -65.61 85.1v50.33a8 8 0 0 0 8 8h416a8 8 0 0 0 8-8v-50.33a88.048 88.048 0 0 0 -65.6-85.1zm-14.4-207.87a12.014 12.014 0 0 1 8 11.3v56a12.014 12.014 0 0 1 -8 11.3zm-24-.7h8v80h-8zm-248 79.3a12.014 12.014 0 0 1 -8-11.3v-56a12.014 12.014 0 0 1 8-11.3zm214.36 126.86-33.27 63.24-32.33-15.84 46-52.56zm-78.36 37.69-48-54.86v-19.89c16.38 9.48 33.46 14.9 48 14.9s31.62-5.42 48-14.9v19.89zm-96-275.85a96 96 0 0 1 192 0v27.31a79.215 79.215 0 0 1 -41.3-31.53 8.009 8.009 0 0 0 -10.76-2.37c-.61.36-59.45 35.26-139.94 37.48zm-24 32h8v80h-8zm8 120v-24h3.4a103.55 103.55 0 0 0 10.34 24zm46.51 16h34.87a24.031 24.031 0 0 0 22.62 16h16a24 24 0 0 0 0-48h-16a24.031 24.031 0 0 0 -22.62 16h-48.76c-14.07-19.68-16.62-37.63-16.62-48v-57.11c70.26-1.8 123.83-26.71 141.78-36.2a93.971 93.971 0 0 0 50.22 33.25v60.06c0 13.75-4.46 40.8-34.34 67.58-19.26 17.26-43.47 28.42-61.66 28.42s-42.4-11.16-61.66-28.42c-1.33-1.19-2.6-2.39-3.83-3.58zm49.49-8a8.011 8.011 0 0 1 8-8h16a8 8 0 0 1 0 16h-16a8.011 8.011 0 0 1 -8-8zm-42.76 73 45.92 52.48-31.73 15.86-33.31-63.31zm28.51 135h-113.75v-32a8 8 0 0 0 -16 0v32h-40v-42.33a72.027 72.027 0 0 1 53.68-69.62l52.56-13.84 38.68 73.51a8.011 8.011 0 0 0 10.66 3.44l5.64-2.83 14.3 28.6zm16.5 0 4-16h19.69l4.5 16zm24.81-32h-22.12l-13.41-26.82 24.28-12.14 24.68 12.08zm188.94 32h-40v-32a8 8 0 0 0 -16 0v32h-112.94l-6.52-23.19 14.32-28.65 6.17 3.02a7.882 7.882 0 0 0 3.51.82 8 8 0 0 0 7.09-4.28l38.61-73.38 52.09 13.71a72.03 72.03 0 0 1 53.67 69.62z"/></g></g></svg>