<svg id="Capa_1" enable-background="new 0 0 512 512" height="512" viewBox="0 0 512 512" width="512" xmlns="http://www.w3.org/2000/svg" xmlns:xlink="http://www.w3.org/1999/xlink"><linearGradient id="SVGID_1_" gradientUnits="userSpaceOnUse" x1="256" x2="256" y1="512" y2="0"><stop offset="0" stop-color="#ffe59a"/><stop offset="1" stop-color="#ffffd5"/></linearGradient><linearGradient id="SVGID_2_" gradientUnits="userSpaceOnUse" x1="256" x2="256" y1="389" y2="123"><stop offset="0" stop-color="#ffde00"/><stop offset="1" stop-color="#fd5900"/></linearGradient><g><g><circle cx="256" cy="256" fill="url(#SVGID_1_)" r="256"/></g><g><g><path d="m351.104 320.664 55.896 55.798v-151.491l-145.674 109.063c-3.157 2.355-7.494 2.355-10.652 0l-145.674-109.063v151.491l55.896-55.798c3.47-3.463 9.09-3.463 12.56 0 3.47 3.464 3.47 9.075 0 12.538l-55.896 55.798h276.88l-55.896-55.798c-3.47-3.463-3.47-9.074 0-12.538 3.469-3.463 9.09-3.463 12.56 0zm44.048-108.997h-52.124c-8.255 40.419-44.136 70.933-87.028 70.933s-78.773-30.514-87.028-70.934h-52.124l139.152 104.184zm-139.152 53.2c39.245 0 71.059-31.758 71.059-70.934s-31.814-70.933-71.059-70.933-71.059 31.757-71.059 70.933c0 39.175 31.814 70.934 71.059 70.934zm-32.927-77.203c3.47-3.463 9.091-3.463 12.56 0l11.485 11.464 29.249-29.197c3.47-3.464 9.091-3.464 12.56 0 3.47 3.463 3.47 9.074 0 12.538l-35.53 35.467c-3.469 3.463-9.09 3.464-12.56 0l-17.765-17.733c-3.469-3.464-3.469-9.075.001-12.539z" fill="url(#SVGID_2_)"/></g></g></g></svg>