<svg id="Capa_1" enable-background="new 0 0 490 490" height="512" viewBox="0 0 490 490" width="512" xmlns="http://www.w3.org/2000/svg"><g><circle cx="245" cy="245" fill="#232c31" r="245"/><path d="m394.283 394.279-149.28-149.28-149.29 149.29c-82.45-82.45-82.45-216.13 0-298.58 82.45-82.45 216.13-82.45 298.57 0 82.45 82.45 82.45 216.12 0 298.57z" fill="#db2b51"/><path d="m394.283 95.719c41.23 41.23 61.84 95.26 61.84 149.28h-211.12z" fill="#69af53"/><path d="m245.003 244.999h211.12c0 54.04-20.62 108.05-61.84 149.28z" fill="#7fd16c"/><path d="m394.283 95.709v.01l-149.28 149.28v-211.13c54.03 0 108.06 20.62 149.28 61.84z" fill="#e7c837"/><path d="m245.003 33.869v211.13l-149.29-149.29c41.23-41.22 95.26-61.84 149.29-61.84z" fill="#cf9929"/><path d="m245.003 244.999-149.29 149.29c-41.23-41.22-61.84-95.26-61.84-149.29z" fill="#b21646"/><circle cx="245" cy="245" fill="#232c31" r="100.297"/><path d="m406.981 156.184-173.741 74.163 17.789 32.443z" fill="#fff"/><circle cx="245.001" cy="244.997" fill="#e4e4e4" r="38.269"/><g fill="#3b494d"><path d="m322.863 444.269h-28.966c-5.239 0-9.486-4.247-9.486-9.486v-63.028c0-5.239 4.247-9.486 9.486-9.486h28.966c5.239 0 9.486 4.247 9.486 9.486v63.028c0 5.239-4.247 9.486-9.486 9.486z"/><path d="m259.483 444.269h-28.966c-5.239 0-9.486-4.247-9.486-9.486v-63.028c0-5.239 4.247-9.486 9.486-9.486h28.966c5.239 0 9.486 4.247 9.486 9.486v63.028c0 5.239-4.247 9.486-9.486 9.486z"/><path d="m196.103 444.269h-28.966c-5.239 0-9.486-4.247-9.486-9.486v-63.028c0-5.239 4.247-9.486 9.486-9.486h28.966c5.239 0 9.486 4.247 9.486 9.486v63.028c0 5.239-4.247 9.486-9.486 9.486z"/></g></g></svg>